<?xml version="1.0" encoding="UTF-8"?>
<svg xmlns="http://www.w3.org/2000/svg" xmlns:xlink="http://www.w3.org/1999/xlink" id="content" viewBox="0 0 255.78 281.88">
  <defs>
    <style>.cls-1,.cls-10,.cls-11,.cls-12,.cls-13,.cls-14,.cls-15,.cls-16,.cls-6,.cls-7,.cls-9{fill:none;}.cls-2{clip-path:url(#clip-path);}.cls-3{fill:#150035;}.cls-4{fill:#fff;}.cls-5{fill:#1559ed;}.cls-10,.cls-11,.cls-12,.cls-13,.cls-14,.cls-15,.cls-16,.cls-6,.cls-7,.cls-9{stroke:#150035;stroke-miterlimit:10;}.cls-7{stroke-dasharray:3.05 3.05;}.cls-8{fill:#2872fa;}.cls-9{stroke-dasharray:3.05 3.05;}.cls-10{stroke-dasharray:3.07 3.07;}.cls-11{stroke-dasharray:2.91 2.91;}.cls-12{stroke-dasharray:2.91 2.91;}.cls-13{stroke-dasharray:2.97 2.97;}.cls-14{stroke-dasharray:2.89 2.89;}.cls-15{stroke-dasharray:3.21 3.21;}.cls-16{stroke-dasharray:2.97 2.97;}</style>
    <clipPath id="clip-path">
      <path class="cls-1" d="M238.68,210.75l21.07-12.34a.22.22,0,0,0,.06-.31l-5.58-7.83a.2.2,0,0,0-.19-.08L13.79,216.05S8,220.75,3.72,223.43a1.17,1.17,0,0,0,0,2.17c5.74,3.43,19.42,11.15,34.57,20.19-.53.16-.71.82-1.14,1.07l-7.72,4.43c-2.55,1.47-2.56,3.57.38,5.26s7.39,1.89,9.94.42L43,255.11c.22-.12,2-1.2,3.52-2.09a3.72,3.72,0,0,1,3.86,0c8.92,5.38,18,11.17,18.5,11.48h0a5.48,5.48,0,0,0,4.92.39c1.32-.55,3.21-1.26,5.71-2l2,.24L84,264.57a9.63,9.63,0,0,0-3.68,1.12l-12,6.9c-3.11,1.8-2.72,4.94.88,7s9,2.3,12.16.5L83.25,279l10.09-5.82a5,5,0,0,1,5.12,0L111.4,281a6.07,6.07,0,0,0,6.1.08L149,263.33a7.55,7.55,0,0,1,8.48.72c3.17,2.58,7.81,6,12,7.71a5.71,5.71,0,0,0,4.92-.3l15.07-8.2c.73,3.2,3.95,6.24,9.78,8a28.29,28.29,0,0,0,16.94-.08c11.28-3.62,12.73-12,4.34-16.83a24.6,24.6,0,0,0-9.42-2.9l3.36-1.83a1.8,1.8,0,0,0,0-3.15,26.46,26.46,0,0,1-2.66-1.64,1.63,1.63,0,0,1,.16-2.75l11-6.59a1.32,1.32,0,0,0-.1-2.34,17.52,17.52,0,0,1-2.7-1.51,1.52,1.52,0,0,1,.14-2.56L241.82,217a1.57,1.57,0,0,0-.16-2.82c-.9-.39-1.92-.84-2.91-1.34A1.17,1.17,0,0,1,238.68,210.75Z"></path>
    </clipPath>
  </defs>
  <title>fetch</title>
  <g class="cls-2">
    <rect class="cls-3" x="46.15" y="264.98" width="221.6" height="0.65" transform="translate(-111.53 113.85) rotate(-29.96)"></rect>
    <rect class="cls-3" x="47.94" y="265.93" width="221.6" height="0.65" transform="translate(-111.77 114.87) rotate(-29.96)"></rect>
    <rect class="cls-3" x="49.57" y="266.95" width="221.6" height="0.65" transform="translate(-112.06 115.82) rotate(-29.96)"></rect>
    <rect class="cls-3" x="51.4" y="267.88" width="221.6" height="0.65" transform="translate(-112.3 116.9) rotate(-29.97)"></rect>
    <rect class="cls-3" x="52.9" y="268.93" width="221.6" height="0.65" transform="translate(-112.6 117.75) rotate(-29.96)"></rect>
    <rect class="cls-3" x="54.7" y="269.89" width="221.6" height="0.65" transform="translate(-112.84 118.78) rotate(-29.96)"></rect>
    <rect class="cls-3" x="56.32" y="270.91" width="221.6" height="0.65" transform="translate(-113.13 119.72) rotate(-29.96)"></rect>
    <rect class="cls-3" x="58.15" y="271.84" width="221.6" height="0.65" transform="translate(-113.35 120.76) rotate(-29.96)"></rect>
    <rect class="cls-3" x="59.77" y="272.86" width="221.6" height="0.65" transform="translate(-113.66 121.73) rotate(-29.97)"></rect>
    <rect class="cls-3" x="61.6" y="273.81" width="221.6" height="0.65" transform="translate(-113.89 122.77) rotate(-29.97)"></rect>
    <rect class="cls-3" x="63.22" y="274.83" width="221.6" height="0.65" transform="translate(-114.18 123.72) rotate(-29.97)"></rect>
    <rect class="cls-3" x="65.05" y="275.77" width="221.6" height="0.65" transform="translate(-114.4 124.75) rotate(-29.97)"></rect>
    <rect class="cls-3" x="66.56" y="276.81" width="221.6" height="0.65" transform="translate(-114.71 125.62) rotate(-29.96)"></rect>
    <rect class="cls-3" x="68.35" y="277.77" width="221.6" height="0.65" transform="translate(-114.96 126.67) rotate(-29.97)"></rect>
    <rect class="cls-3" x="69.97" y="278.79" width="221.6" height="0.65" transform="translate(-115.25 127.62) rotate(-29.97)"></rect>
    <rect class="cls-3" x="71.8" y="279.72" width="221.6" height="0.65" transform="translate(-115.48 128.66) rotate(-29.97)"></rect>
    <rect class="cls-3" x="73.43" y="280.74" width="221.6" height="0.65" transform="translate(-115.76 129.58) rotate(-29.96)"></rect>
    <rect class="cls-3" x="77.15" y="280.47" width="221.6" height="0.65" transform="translate(-115.13 131.43) rotate(-29.97)"></rect>
    <rect class="cls-3" x="78.95" y="281.43" width="221.6" height="0.65" transform="translate(-115.36 132.43) rotate(-29.96)"></rect>
    <rect class="cls-3" x="80.57" y="282.44" width="221.6" height="0.65" transform="translate(-115.66 133.4) rotate(-29.97)"></rect>
    <rect class="cls-3" x="82.4" y="283.38" width="221.6" height="0.65" transform="translate(-115.87 134.41) rotate(-29.96)"></rect>
    <rect class="cls-3" x="84.02" y="284.4" width="221.6" height="0.65" transform="translate(-116.17 135.37) rotate(-29.96)"></rect>
    <rect class="cls-3" x="22.2" y="251.24" width="221.6" height="0.65" transform="translate(-107.88 100.07) rotate(-29.97)"></rect>
    <rect class="cls-3" x="24.03" y="252.17" width="221.6" height="0.65" transform="translate(-108.1 101.11) rotate(-29.97)"></rect>
    <rect class="cls-3" x="25.54" y="253.22" width="221.6" height="0.65" transform="translate(-108.42 102) rotate(-29.97)"></rect>
    <rect class="cls-3" x="27.33" y="254.18" width="221.6" height="0.65" transform="translate(-108.66 103.02) rotate(-29.97)"></rect>
    <rect class="cls-3" x="28.95" y="255.19" width="221.6" height="0.65" transform="translate(-108.95 103.97) rotate(-29.97)"></rect>
    <rect class="cls-3" x="30.78" y="256.13" width="221.6" height="0.65" transform="translate(-109.18 105.01) rotate(-29.97)"></rect>
    <rect class="cls-3" x="31.49" y="253.74" width="235.17" height="0.65" transform="translate(-106.99 108.45) rotate(-29.97)"></rect>
    <rect class="cls-3" x="33.31" y="254.66" width="235.42" height="0.65" transform="translate(-107.18 109.53) rotate(-29.97)"></rect>
    <rect class="cls-3" x="34.94" y="255.68" width="235.42" height="0.65" transform="translate(-107.47 110.48) rotate(-29.97)"></rect>
    <rect class="cls-3" x="36.83" y="256.86" width="234.45" height="0.65" transform="translate(-107.86 111.32) rotate(-29.96)"></rect>
    <rect class="cls-3" x="38.46" y="258.42" width="232.25" height="0.65" transform="translate(-108.6 111.85) rotate(-29.98)"></rect>
    <rect class="cls-3" x="40.98" y="262.06" width="221.6" height="0.65" transform="translate(-110.77 110.9) rotate(-29.97)"></rect>
    <rect class="cls-3" x="42.6" y="263.08" width="221.6" height="0.65" transform="translate(-111.05 111.83) rotate(-29.96)"></rect>
    <rect class="cls-3" x="44.43" y="264.01" width="221.6" height="0.65" transform="translate(-111.28 112.86) rotate(-29.96)"></rect>
    <rect class="cls-3" x="46.06" y="265.03" width="221.6" height="0.65" transform="translate(-111.6 113.87) rotate(-29.98)"></rect>
    <rect class="cls-3" x="-5.09" y="235.47" width="221.6" height="0.65" transform="translate(-103.64 84.31) rotate(-29.96)"></rect>
    <rect class="cls-3" x="-3.3" y="236.43" width="221.6" height="0.65" transform="translate(-103.89 85.35) rotate(-29.97)"></rect>
    <rect class="cls-3" x="-1.67" y="237.44" width="221.6" height="0.65" transform="translate(-104.17 86.29) rotate(-29.96)"></rect>
    <rect class="cls-3" x="0.16" y="238.38" width="221.6" height="0.65" transform="translate(-104.39 87.32) rotate(-29.96)"></rect>
    <rect class="cls-3" x="1.66" y="239.43" width="221.6" height="0.65" transform="translate(-104.71 88.22) rotate(-29.96)"></rect>
    <rect class="cls-3" x="3.45" y="240.38" width="221.6" height="0.65" transform="translate(-104.96 89.26) rotate(-29.97)"></rect>
    <rect class="cls-3" x="5.08" y="241.4" width="221.6" height="0.65" transform="translate(-105.24 90.19) rotate(-29.96)"></rect>
    <rect class="cls-3" x="6.91" y="242.34" width="221.6" height="0.65" transform="translate(-105.48 91.24) rotate(-29.97)"></rect>
    <rect class="cls-3" x="8.53" y="243.36" width="221.6" height="0.65" transform="translate(-105.76 92.17) rotate(-29.96)"></rect>
    <rect class="cls-3" x="10.35" y="244.31" width="221.6" height="0.65" transform="translate(-105.99 93.21) rotate(-29.96)"></rect>
    <rect class="cls-3" x="11.98" y="245.33" width="221.6" height="0.65" transform="translate(-106.29 94.18) rotate(-29.97)"></rect>
    <rect class="cls-3" x="13.81" y="246.26" width="221.6" height="0.65" transform="translate(-106.54 95.24) rotate(-29.98)"></rect>
    <rect class="cls-3" x="15.31" y="247.31" width="221.6" height="0.65" transform="translate(-106.83 96.09) rotate(-29.96)"></rect>
    <rect class="cls-3" x="17.11" y="248.27" width="221.6" height="0.65" transform="translate(-107.06 97.11) rotate(-29.96)"></rect>
    <rect class="cls-3" x="18.73" y="249.28" width="221.6" height="0.65" transform="translate(-107.37 98.08) rotate(-29.97)"></rect>
    <rect class="cls-3" x="20.56" y="250.22" width="221.6" height="0.65" transform="translate(-107.59 99.11) rotate(-29.97)"></rect>
    <rect class="cls-3" x="-29.04" y="221.73" width="221.6" height="0.65" transform="translate(-99.99 70.53) rotate(-29.97)"></rect>
    <rect class="cls-3" x="-27.21" y="222.67" width="221.6" height="0.65" transform="translate(-100.21 71.57) rotate(-29.97)"></rect>
    <rect class="cls-3" x="-25.71" y="223.72" width="221.6" height="0.65" transform="translate(-100.54 72.46) rotate(-29.97)"></rect>
    <rect class="cls-3" x="-23.91" y="224.67" width="221.6" height="0.65" transform="translate(-100.76 73.47) rotate(-29.96)"></rect>
    <rect class="cls-3" x="-22.29" y="225.69" width="221.6" height="0.65" transform="translate(-101.07 74.43) rotate(-29.97)"></rect>
    <rect class="cls-3" x="-20.46" y="226.63" width="221.6" height="0.65" transform="translate(-101.29 75.47) rotate(-29.97)"></rect>
    <rect class="cls-3" x="-18.84" y="227.64" width="221.6" height="0.65" transform="translate(-101.58 76.42) rotate(-29.97)"></rect>
    <rect class="cls-3" x="-17.01" y="228.6" width="221.6" height="0.65" transform="translate(-101.81 77.46) rotate(-29.97)"></rect>
    <rect class="cls-3" x="-15.39" y="229.61" width="221.6" height="0.65" transform="translate(-102.1 78.4) rotate(-29.97)"></rect>
    <rect class="cls-3" x="-13.56" y="230.55" width="221.6" height="0.65" transform="translate(-102.33 79.44) rotate(-29.97)"></rect>
    <rect class="cls-3" x="-12.05" y="231.6" width="221.6" height="0.65" transform="translate(-102.65 80.33) rotate(-29.97)"></rect>
    <rect class="cls-3" x="-10.26" y="232.55" width="221.6" height="0.65" transform="translate(-102.89 81.36) rotate(-29.97)"></rect>
    <rect class="cls-3" x="-8.64" y="233.57" width="221.6" height="0.65" transform="translate(-103.17 82.29) rotate(-29.96)"></rect>
    <rect class="cls-3" x="-6.81" y="234.51" width="221.6" height="0.65" transform="translate(-103.4 83.34) rotate(-29.97)"></rect>
    <rect class="cls-3" x="-5.18" y="235.53" width="221.6" height="0.65" transform="translate(-103.68 84.27) rotate(-29.96)"></rect>
    <rect class="cls-3" x="-54.57" y="206.98" width="221.6" height="0.65" transform="translate(-96.03 55.79) rotate(-29.96)"></rect>
    <rect class="cls-3" x="-52.78" y="207.94" width="221.6" height="0.65" transform="translate(-96.26 56.81) rotate(-29.96)"></rect>
    <rect class="cls-3" x="-51.16" y="208.96" width="221.6" height="0.65" transform="translate(-96.56 57.76) rotate(-29.96)"></rect>
    <rect class="cls-3" x="-49.33" y="209.89" width="221.6" height="0.65" transform="translate(-96.78 58.8) rotate(-29.96)"></rect>
    <rect class="cls-3" x="-47.82" y="210.94" width="221.6" height="0.65" transform="translate(-97.1 59.69) rotate(-29.96)"></rect>
    <rect class="cls-3" x="-46.03" y="211.9" width="221.6" height="0.65" transform="translate(-97.34 60.72) rotate(-29.96)"></rect>
    <rect class="cls-3" x="-44.41" y="212.92" width="221.6" height="0.65" transform="translate(-97.63 61.66) rotate(-29.96)"></rect>
    <rect class="cls-3" x="-42.58" y="213.85" width="221.6" height="0.65" transform="translate(-97.85 62.7) rotate(-29.96)"></rect>
    <rect class="cls-3" x="-40.95" y="214.87" width="221.6" height="0.65" transform="translate(-98.16 63.66) rotate(-29.97)"></rect>
    <rect class="cls-3" x="-39.13" y="215.82" width="221.6" height="0.65" transform="translate(-98.39 64.7) rotate(-29.97)"></rect>
    <rect class="cls-3" x="-37.5" y="216.84" width="221.6" height="0.65" transform="translate(-98.67 65.63) rotate(-29.96)"></rect>
    <rect class="cls-3" x="-35.68" y="217.77" width="221.6" height="0.65" transform="translate(-98.9 66.69) rotate(-29.97)"></rect>
    <rect class="cls-3" x="-34.17" y="218.82" width="221.6" height="0.65" transform="translate(-99.21 67.56) rotate(-29.96)"></rect>
    <rect class="cls-3" x="-32.38" y="219.78" width="221.6" height="0.65" transform="translate(-99.45 68.59) rotate(-29.96)"></rect>
    <rect class="cls-3" x="-30.75" y="220.8" width="221.6" height="0.65" transform="translate(-99.75 69.55) rotate(-29.97)"></rect>
    <rect class="cls-3" x="-78.53" y="193.25" width="221.6" height="0.65" transform="translate(-92.38 42) rotate(-29.97)"></rect>
    <rect class="cls-3" x="-76.7" y="194.18" width="221.6" height="0.65" transform="translate(-92.6 43.04) rotate(-29.97)"></rect>
    <rect class="cls-3" x="-75.19" y="195.23" width="221.6" height="0.65" transform="translate(-92.92 43.93) rotate(-29.97)"></rect>
    <rect class="cls-3" x="-73.4" y="196.19" width="221.6" height="0.65" transform="translate(-93.15 44.95) rotate(-29.96)"></rect>
    <rect class="cls-3" x="-71.77" y="197.2" width="221.6" height="0.65" transform="translate(-93.45 45.9) rotate(-29.97)"></rect>
    <rect class="cls-3" x="-69.95" y="198.14" width="221.6" height="0.65" transform="translate(-93.68 46.94) rotate(-29.97)"></rect>
    <rect class="cls-3" x="-68.32" y="199.16" width="221.6" height="0.65" transform="translate(-93.96 47.88) rotate(-29.96)"></rect>
    <rect class="cls-3" x="-66.5" y="200.11" width="221.6" height="0.65" transform="translate(-94.2 48.93) rotate(-29.97)"></rect>
    <rect class="cls-3" x="-64.87" y="201.13" width="221.6" height="0.65" transform="translate(-94.49 49.88) rotate(-29.97)"></rect>
    <rect class="cls-3" x="-63.05" y="202.06" width="221.6" height="0.65" transform="translate(-94.7 50.9) rotate(-29.96)"></rect>
    <rect class="cls-3" x="-61.54" y="203.11" width="221.6" height="0.65" transform="translate(-95.04 51.81) rotate(-29.97)"></rect>
    <rect class="cls-3" x="-59.75" y="204.07" width="221.6" height="0.65" transform="translate(-95.29 52.85) rotate(-29.98)"></rect>
    <rect class="cls-3" x="-58.12" y="205.09" width="221.6" height="0.65" transform="translate(-95.55 53.77) rotate(-29.96)"></rect>
    <rect class="cls-3" x="-56.29" y="206.02" width="221.6" height="0.65" transform="translate(-95.78 54.8) rotate(-29.96)"></rect>
    <rect class="cls-3" x="-54.67" y="207.04" width="221.6" height="0.65" transform="translate(-96.08 55.76) rotate(-29.97)"></rect>
  </g>
  <path class="cls-4" d="M48.91,166.7s-2.89-4.12-3.76-13.29c0,0,19.63,2,43.23-12.27S62.75,168,62.75,168Z"></path>
  <path class="cls-3" d="M62.93,168.54l-14.33-1.3-.15-.22c-.12-.17-3-4.35-3.86-13.55l-.06-.68.68.06c.19,0,19.73,1.78,42.88-12.2,5.88-3.54,6.68-3.35,7.12-2.74s1.14,1.6-15.58,16.32c-8.08,7.12-16.44,14.09-16.52,14.16Zm-13.69-2.38,13.32,1.21c11.56-9.64,29.49-25.23,31.49-28.59a31.64,31.64,0,0,0-5.37,2.84c-21.05,12.7-39.2,12.58-42.9,12.4C46.57,161.34,48.69,165.24,49.24,166.16Z"></path>
  <path class="cls-4" d="M224.56,143.05s6-4.78,17.15-2.61l4.39,9.74s-12.45-4.13-18.58,3.27S224.56,143.05,224.56,143.05Z"></path>
  <path class="cls-3" d="M225.13,155.81a1.37,1.37,0,0,1-.59-.13c-2.4-1.11-1-10-.53-12.73l0-.21.16-.14c.25-.2,6.34-4.9,17.61-2.71l.29.05,5,11.18-1.22-.4c-.12,0-12.15-3.92-18,3.09C227.21,154.71,226.16,155.81,225.13,155.81Zm0-12.44c-.89,5.1-1.13,10.8-.07,11.29.06,0,.6.21,2.08-1.57,5.24-6.33,14.66-4.63,18-3.78l-3.77-8.37C231.72,139.16,226.09,142.66,225.08,143.37Z"></path>
  <path class="cls-4" d="M191.09,236.91,232.67,213a.71.71,0,0,0-.2-1.31c-3.2-.65-9.49-2.5-12.65-7.4-4.09-6.32-29.2,21.57-32.17,24.91a.7.7,0,0,0-.13.73Z"></path>
  <path class="cls-3" d="M190.86,237.69,187,230.16a1.28,1.28,0,0,1,.21-1.36c3.9-4.39,23.52-26,30.76-26h.26a2.53,2.53,0,0,1,2,1.18c3,4.66,9,6.48,12.29,7.15a1.27,1.27,0,0,1,1,1,1.28,1.28,0,0,1-.63,1.31ZM218,203.9c-5.57,0-21.35,16-29.89,25.65a.14.14,0,0,0,0,.14l3.28,6.43,41.06-23.64a.12.12,0,0,0,.07-.15c0-.06,0-.1-.11-.11-3.47-.71-9.77-2.64-13-7.65a1.43,1.43,0,0,0-1.17-.67Z"></path>
  <path class="cls-4" d="M18,205.79A28.63,28.63,0,0,1,.8,213.36a.25.25,0,0,0-.11.47L72.4,255.28a.28.28,0,0,0,.13,0c1.17,0,18.08-.41,30.38-12.39,12.45-12.13-80.55-36.14-84.7-37.21A.24.24,0,0,0,18,205.79Z"></path>
  <path class="cls-3" d="M72.52,255.88a.83.83,0,0,1-.4-.11L.41,214.32a.81.81,0,0,1-.39-.88.84.84,0,0,1,.73-.65,28.2,28.2,0,0,0,16.82-7.4h0a.78.78,0,0,1,.78-.21c8.46,2.16,82.72,21.55,86.13,34.36a3.7,3.7,0,0,1-1.18,3.8c-12.53,12.2-30,12.53-30.77,12.54ZM1.79,213.81l70.82,40.94c1.55,0,18-.65,29.9-12.22a2.6,2.6,0,0,0,.88-2.7c-2.64-9.9-56.75-26.22-85.15-33.52A28.87,28.87,0,0,1,1.79,213.81Z"></path>
  <path class="cls-5" d="M81,143.29s-2.19-4.59,2.92-7.82A62,62,0,0,1,96.55,130L98,131l-7.55,11.18Z"></path>
  <path class="cls-3" d="M80.7,143.9l-.18-.36s-2.35-5.09,3.13-8.55a62.31,62.31,0,0,1,12.74-5.57l.25-.08,2.17,1.46-8,11.86Zm15.76-13.32A60.32,60.32,0,0,0,84.25,136c-3.88,2.45-3.22,5.65-2.85,6.73l8.75-1.08,7.09-10.49Z"></path>
  <path class="cls-4" d="M29,174s-2.89-4.12-3.76-13.28c0,0,19.63,2,43.23-12.28s-25.63,26.81-25.63,26.81Z"></path>
  <path class="cls-3" d="M43.05,175.81l-14.33-1.3-.15-.21c-.12-.18-3-4.36-3.86-13.56l-.06-.68.68.07c.19,0,19.73,1.77,42.88-12.2,5.88-3.55,6.68-3.36,7.12-2.75s1.14,1.61-15.58,16.32c-8.08,7.12-16.44,14.09-16.52,14.16Zm-13.69-2.37,13.33,1.2c11.55-9.64,29.48-25.23,31.48-28.58a30.61,30.61,0,0,0-5.38,2.83c-21,12.7-39.19,12.58-42.89,12.4C26.69,168.61,28.81,172.52,29.36,173.44Z"></path>
  <polygon class="cls-4" points="8.09 188.16 21.97 195.86 21.98 195.86 28.05 188.16 28.05 188.15 19.15 181.19 19.14 181.19 8.09 188.15 8.09 188.16"></polygon>
  <path class="cls-3" d="M21.87,196.47l-.21-.14L7.54,188.47l0-.59.23-.18,11-6.95.31-.32,9.48,7.43.05.51-.19.19-6.07,7.78ZM9.19,188.12l12.64,7,5.43-6.89-8.15-6.37Z"></path>
  <path class="cls-4" d="M176.38,114.86l13.85-5.77s21.35,26.1,59.85,51.08l-38.3,22.39-47.16-57.13Z"></path>
  <path class="cls-3" d="M211.65,183.29l-47.81-57.92,12.32-11,14.25-5.94.26.33c.22.26,21.74,26.33,59.71,51l.77.5Zm-46.25-57.8,46.51,56.34L249,160.14c-35.37-23.1-56.34-47.31-58.93-50.37l-13.39,5.57Z"></path>
  <path class="cls-4" d="M160.76,108l13.86-5.77s23.82,26.11,62.32,51.09l-40.78,22.38L149,118.55Z"></path>
  <path class="cls-3" d="M196,176.4l-47.81-57.91,12.33-11,14.22-5.93.27.3c.23.26,24.22,26.35,62.21,51l.79.52Zm-46.25-57.79L196.3,175l39.55-21.7a357.08,357.08,0,0,1-61.38-50.38l-13.4,5.58Z"></path>
  <path class="cls-4" d="M101.76,128.69s22-12,37.94-29.41l7-8.15,96,65.94-90.19,10.46Z"></path>
  <path class="cls-3" d="M152.3,168.11l-51.57-39.49.76-.42c.22-.12,22.1-12.17,37.79-29.31l7.3-8.52,97.63,67.09Zm-49.52-39.34,49.85,38.17,88.46-10.25L146.78,91.88l-6.65,7.76C125.94,115.12,106.78,126.48,102.78,128.77Z"></path>
  <path class="cls-4" d="M15.13,178.87,116.5,237.4h.09l133.49-77.07a.09.09,0,0,0,0-.16L148.7,101.64a.14.14,0,0,0-.09,0L15.13,178.71A.09.09,0,0,0,15.13,178.87Z"></path>
  <path class="cls-3" d="M116.55,238a.73.73,0,0,1-.33-.08L14.85,179.36h0a.66.66,0,0,1,0-1.14l133.48-77.07a.68.68,0,0,1,.65,0l101.38,58.53a.66.66,0,0,1,0,1.14L116.87,237.88A.62.62,0,0,1,116.55,238ZM16.12,178.79l100.43,58,132.53-76.52-100.42-58Z"></path>
  <path class="cls-4" d="M15,179v34.53a.1.1,0,0,0,0,.08l101.37,58.53a.1.1,0,0,0,.14-.08V237.47a.08.08,0,0,0,0-.07L15.13,178.87A.09.09,0,0,0,15,179Z"></path>
  <path class="cls-3" d="M116.45,272.66a.68.68,0,0,1-.33-.09L14.75,214.05a.65.65,0,0,1-.32-.57V179a.65.65,0,0,1,1-.57l101.37,58.53a.65.65,0,0,1,.33.56V272a.68.68,0,0,1-.33.57A.73.73,0,0,1,116.45,272.66ZM15.55,213.21l100.43,58V237.75l-100.43-58Z"></path>
  <path class="cls-4" d="M250.21,160.41v34.53a.09.09,0,0,1,0,.08L116.68,272.09a.09.09,0,0,1-.13-.08V237.47a.07.07,0,0,1,0-.07l133.49-77.07A.09.09,0,0,1,250.21,160.41Z"></path>
  <path class="cls-3" d="M116.64,272.66a.73.73,0,0,1-.33-.08A.68.68,0,0,1,116,272V237.47a.65.65,0,0,1,.33-.56l133.48-77.07a.65.65,0,0,1,.66,0,.66.66,0,0,1,.33.57v34.53a.64.64,0,0,1-.34.57L117,272.57A.62.62,0,0,1,116.64,272.66Zm.47-34.91v33.44l132.54-76.52V161.23Z"></path>
  <path class="cls-4" d="M18,190.77,11,194.22a.09.09,0,0,0,0,.17L65.76,221.8h0l5.1,4.14,0,0h0a2.11,2.11,0,0,0,1.59-3.87L18,190.77A.1.1,0,0,0,18,190.77Z"></path>
  <path class="cls-3" d="M71.51,226.61a3.17,3.17,0,0,1-.73-.09l-.13,0-.13-.1-5.06-4.1L10.75,194.89a.66.66,0,0,1,0-1.18l7-3.45a.65.65,0,0,1,.62,0l54.47,31.33a2.68,2.68,0,0,1-1.28,5Zm-.35-1.16a1.55,1.55,0,0,0,1.07-2.86L18,191.39,12.1,194.3l54,27Z"></path>
  <path class="cls-4" d="M73.53,234.91l2.61,4.15L102.05,254h0l7.5.48a.37.37,0,0,0,.18-.7l-5.14-2.36-14.47-8-16.47-8.69A.1.1,0,0,0,73.53,234.91Z"></path>
  <path class="cls-3" d="M109.58,255h-.07l-7.61-.48-.13-.08-26-15-2.66-4.24a.68.68,0,0,1,0-.8.67.67,0,0,1,.85-.17L90.39,243l14.47,8,5.11,2.34a.93.93,0,0,1-.39,1.77Zm-7.36-1.6,6.29.4-4.15-1.9-14.51-8-14.92-7.87,1.61,2.57Z"></path>
  <path class="cls-4" d="M138,237.08l98.94-56.63h0l5.47-1.22a.1.1,0,0,1,.11.14l-3.24,5.17s0,0,0,0l-25.88,15.87h0l-9.18,1.42h0l-35.3,22.75h0l-30.74,12.62A.09.09,0,0,1,138,237.08Z"></path>
  <path class="cls-3" d="M138,237.82a.66.66,0,0,1-.33-1.23h0l99-56.66.1,0,5.5-1.23a.66.66,0,0,1,.71,1L239.7,185l-.15.1-26,15.92-.15,0-9.07,1.4-35.29,22.74-.1,0-30.68,12.6A.63.63,0,0,1,138,237.82ZM237.14,181l-92.66,53,24.07-9.89,35.36-22.78.15,0,9.11-1.4,25.7-15.76,2.59-4.13Z"></path>
  <path class="cls-4" d="M127.43,254.93l18.48-10.51a.1.1,0,0,1,.14.12l-1.47,3.6,0,.05-7.88,4.29,0,0-2.31,2.81a.07.07,0,0,1-.07,0l-6.78-.24A.1.1,0,0,1,127.43,254.93Z"></path>
  <path class="cls-3" d="M134.21,255.91l-6.76-.24a.67.67,0,0,1-.62-.5.66.66,0,0,1,.32-.73h0l18.49-10.51a.66.66,0,0,1,.93.82L145,248.54l-.22.14-7.8,4.25-2.43,3Zm-5.07-1.31,4.9.18,2.34-2.79,7.74-4.22.9-2.19Z"></path>
  <rect class="cls-3" x="37.28" y="207.62" width="1.13" height="12.7" transform="translate(-165.96 138.6) rotate(-59.67)"></rect>
  <rect class="cls-3" x="126.09" y="239.38" width="13.03" height="1.13" transform="translate(-97.3 90.62) rotate(-28.07)"></rect>
  <path class="cls-5" d="M50.6,217.08l12.94,7.15a7.76,7.76,0,0,1,4.11-4.93l-13.85-8Z"></path>
  <path class="cls-3" d="M63.92,225.08,49.83,217.3l3.76-6.74,15.28,8.79-1,.46a7.26,7.26,0,0,0-3.8,4.54Zm-12.55-8.22,11.84,6.54a8.28,8.28,0,0,1,3.29-4.11L54,212.11Z"></path>
  <path class="cls-5" d="M191.09,200.16s5.5,1.57,5.93,9.27l7.12-4.28a12.14,12.14,0,0,0-6-9.16Z"></path>
  <path class="cls-3" d="M196.51,210.4l0-.93c-.4-7.19-5.32-8.71-5.52-8.77l-1.25-.36,8.45-5,.29.18a12.58,12.58,0,0,1,6.27,9.62l0,.33Zm-4.17-10.32c1.63.86,4.58,3.12,5.17,8.4l6-3.63a11.79,11.79,0,0,0-5.42-8.2Z"></path>
  <path class="cls-4" d="M169,236.85a18.89,18.89,0,0,1,8.82,6.8,15.43,15.43,0,0,0,7.48,6.23l28-15.65s-3.8-.73-8.19-5.4a38.47,38.47,0,0,0-9.56-7.27Z"></path>
  <path class="cls-3" d="M185.4,250.49l-.22-.07a15.91,15.91,0,0,1-7.79-6.45,18.48,18.48,0,0,0-8.52-6.59l-1.2-.39,28-16.07.27.14a38.52,38.52,0,0,1,9.71,7.38c4.19,4.46,7.86,5.23,7.89,5.24l1.51.3Zm-15.07-13.73a19.09,19.09,0,0,1,8,6.58,15.38,15.38,0,0,0,6.95,5.92L212,234.38a20.22,20.22,0,0,1-7.19-5.17,38.69,38.69,0,0,0-9.13-7Z"></path>
  <path class="cls-4" d="M152.46,246.39A24.81,24.81,0,0,1,164,255.32c4.34,6.52,9.81,8.16,9.81,8.16l35.27-20.55s-3.45-.94-9.22-7.07a50.47,50.47,0,0,0-12.54-9.54Z"></path>
  <path class="cls-3" d="M173.92,264.1l-.23-.08c-.24-.06-5.72-1.77-10.12-8.39a24.47,24.47,0,0,0-11.28-8.71l-1.2-.4,36.25-20.84.27.14a51.55,51.55,0,0,1,12.7,9.65c5.55,5.91,8.93,6.91,9,6.92l1.28.36-1.15.67Zm-20.15-17.81A25.1,25.1,0,0,1,164.51,255a20.35,20.35,0,0,0,9.28,7.87L207.85,243c-1.48-.74-4.39-2.55-8.36-6.77A50.4,50.4,0,0,0,187.37,227Z"></path>
  <path class="cls-5" d="M58.39,214s-7,1.51-7.79,10.44l-8-4.56a12.67,12.67,0,0,1,7.31-10.76Z"></path>
  <path class="cls-3" d="M51.08,225.35l-9-5.16v-.32c0-.3,0-7.37,7.62-11.27l.27-.14,10,5.76-1.42.31c-.27.06-6.57,1.55-7.36,9.95Zm-7.9-5.81,7,4c.91-6.26,4.87-8.77,6.91-9.65l-7.15-4.11A12.26,12.26,0,0,0,43.18,219.54Z"></path>
  <path class="cls-4" d="M41.93,194.34s-17.72-7.21-21.77-24.91c0,0,17.19-3,48.81-21.52s79.73-46.27,79.73-46.27l101.38,58.69L116.5,237.4Z"></path>
  <path class="cls-3" d="M116.5,238.05l-.28-.17-74.54-43c-.94-.4-18.09-7.91-22.07-25.29l-.13-.58.58-.1c.17,0,17.48-3.21,48.62-21.46s79.26-46,79.74-46.27l.28-.16.29.16L251.2,160.33ZM20.84,169.87C25,186.68,42,193.75,42.14,193.82l.07,0,74.29,42.9L249,160.33l-100.25-58c-4,2.32-49.45,28.52-79.45,46.1C41.1,164.9,24.13,169.15,20.84,169.87Z"></path>
  <path class="cls-5" d="M84,135.47s6.38-4.32,13.31,1.85l33.84-19.21s-4.28-6.08-12.41-3L84,135.47Z"></path>
  <path class="cls-3" d="M97.19,138l-.31-.27c-5.51-4.92-10.57-2.92-12.13-2.1l-.51.31-.61-1,.36-.21,34.49-20.16c8.45-3.25,13,3.09,13.08,3.15l.36.51Zm-7.87-4.56a12.16,12.16,0,0,1,8,3.18L130.24,118c-1.19-1.33-5-4.69-11.31-2.28L88.45,133.49Q88.87,133.46,89.32,133.46Z"></path>
  <path class="cls-5" d="M157,235.63a18.88,18.88,0,0,1,8.81,6.8,15.43,15.43,0,0,0,7.48,6.23l11.1-5.76s-3.56-1.07-8-5.75a38.63,38.63,0,0,0-9.55-7.26Z"></path>
  <path class="cls-3" d="M173.32,249.26l-.22-.06a15.91,15.91,0,0,1-7.79-6.45,18.48,18.48,0,0,0-8.52-6.59l-1.19-.39,11.24-6.52.27.13a38.7,38.7,0,0,1,9.71,7.39c4.24,4.51,7.67,5.58,7.7,5.59l1.33.41Zm-15.07-13.72a19.07,19.07,0,0,1,8,6.58,15.32,15.32,0,0,0,7,5.92L183,243a24.44,24.44,0,0,1-7-5.42,38.84,38.84,0,0,0-9.13-7Z"></path>
  <path class="cls-5" d="M158.25,225.48s5,2.33,4.81,9.55l29.84-16.51s1-5.51-4.28-10.42Z"></path>
  <path class="cls-3" d="M162.47,236l0-1c.2-6.76-4.45-9-4.49-9l-1-.46L188.7,207.4l.3.28c5.43,5.07,4.5,10.7,4.46,10.94l-.05.26-.24.13Zm-3.11-10.51a10.47,10.47,0,0,1,4.26,8.58l28.76-15.91a11.72,11.72,0,0,0-3.85-9.37Z"></path>
  <rect class="cls-3" x="88.63" y="221.97" width="1.13" height="17.4" transform="translate(-155.14 192.42) rotate(-59.96)"></rect>
  <rect class="cls-3" x="242.34" y="177.96" width="3.95" height="1.13" transform="translate(-52.81 121.29) rotate(-25.25)"></rect>
  <path class="cls-5" d="M156,130.13l55.74,32.13a6.08,6.08,0,0,0,5.51-.23h0c1.63-.94,1.81-2.36.4-3.18l-55.75-32.13a6.15,6.15,0,0,0-5.51.23h0C154.77,127.89,154.6,129.32,156,130.13Z"></path>
  <path class="cls-3" d="M214.15,163.38a5.45,5.45,0,0,1-2.68-.63l-55.74-32.13a2.18,2.18,0,0,1-1.24-1.87,2.81,2.81,0,0,1,1.63-2.29,6.68,6.68,0,0,1,6.08-.22l55.74,32.12a2.19,2.19,0,0,1,1.24,1.87,2.81,2.81,0,0,1-1.64,2.29A6.89,6.89,0,0,1,214.15,163.38Zm-57.86-33.73L212,161.77a5.6,5.6,0,0,0,4.95-.22c.67-.39,1.07-.88,1.07-1.32a1.17,1.17,0,0,0-.67-.89l-55.75-32.13a5.58,5.58,0,0,0-4.94.23c-.67.39-1.07.88-1.07,1.31a1.14,1.14,0,0,0,.67.9Z"></path>
  <path class="cls-5" d="M142.84,137.94l55.74,32.13a6.14,6.14,0,0,0,5.52-.23h0c1.63-.94,1.8-2.36.39-3.18l-55.74-32.13a6.15,6.15,0,0,0-5.51.23h0C141.61,135.7,141.43,137.13,142.84,137.94Z"></path>
  <path class="cls-3" d="M201,171.19a5.47,5.47,0,0,1-2.68-.63l-55.74-32.13a2.18,2.18,0,0,1-1.24-1.87,2.81,2.81,0,0,1,1.64-2.29A6.63,6.63,0,0,1,149,134l55.74,32.13A2.19,2.19,0,0,1,206,168a2.82,2.82,0,0,1-1.63,2.29A7,7,0,0,1,201,171.19Zm-57.86-33.74,55.75,32.13a5.58,5.58,0,0,0,4.94-.23c.67-.38,1.07-.87,1.07-1.31a1.13,1.13,0,0,0-.67-.89L148.47,135a5.6,5.6,0,0,0-4.95.23c-.67.38-1.07.87-1.07,1.31a1.13,1.13,0,0,0,.67.89Z"></path>
  <path class="cls-5" d="M129.93,145.75l55.74,32.13a6.15,6.15,0,0,0,5.51-.23h0c1.63-.94,1.81-2.37.4-3.18l-55.75-32.13a6.12,6.12,0,0,0-5.51.23h0C128.69,143.51,128.51,144.93,129.93,145.75Z"></path>
  <path class="cls-3" d="M188.07,179a5.44,5.44,0,0,1-2.68-.62l-55.75-32.13a2.2,2.2,0,0,1-1.23-1.87,2.8,2.8,0,0,1,1.63-2.29,6.66,6.66,0,0,1,6.08-.23L191.86,174a2.17,2.17,0,0,1,1.23,1.87,2.8,2.8,0,0,1-1.63,2.29A6.88,6.88,0,0,1,188.07,179Zm-57.86-33.73L186,177.39a5.6,5.6,0,0,0,5-.23c.67-.39,1.07-.88,1.07-1.31a1.12,1.12,0,0,0-.68-.89l-55.74-32.13a5.58,5.58,0,0,0-4.94.23c-.67.38-1.07.87-1.07,1.31a1.13,1.13,0,0,0,.67.89Z"></path>
  <path class="cls-5" d="M143.45,169l29.05,16.7a6.17,6.17,0,0,0,5.52-.23h0c1.63-1,1.8-2.37.39-3.19l-29.06-16.69a6.15,6.15,0,0,0-5.51.23h0C142.21,166.75,142,168.18,143.45,169Z"></path>
  <path class="cls-3" d="M174.9,186.8a5.47,5.47,0,0,1-2.68-.63l-29.06-16.69a2.18,2.18,0,0,1-1.23-1.87,2.8,2.8,0,0,1,1.63-2.29,6.63,6.63,0,0,1,6.07-.23l29.06,16.7a2.18,2.18,0,0,1,1.24,1.87,2.81,2.81,0,0,1-1.63,2.28A7,7,0,0,1,174.9,186.8Zm-31.17-18.3,29.05,16.7a5.63,5.63,0,0,0,4.95-.23c.67-.39,1.07-.88,1.07-1.31a1.14,1.14,0,0,0-.67-.9l-29.06-16.69a5.6,5.6,0,0,0-4.95.23c-.66.38-1.06.87-1.06,1.31a1.11,1.11,0,0,0,.67.89Z"></path>
  <path class="cls-5" d="M122.38,171.84,159,192.9a6.11,6.11,0,0,0,5.51-.22h0c1.63-1,1.8-2.37.39-3.19l-36.6-21.06a6.17,6.17,0,0,0-5.52.23h0C121.14,169.6,121,171,122.38,171.84Z"></path>
  <path class="cls-3" d="M161.39,194a5.49,5.49,0,0,1-2.69-.63l-36.6-21.06a2.18,2.18,0,0,1-1.24-1.87,2.84,2.84,0,0,1,1.63-2.29,6.62,6.62,0,0,1,6.08-.22L165.17,189a2.19,2.19,0,0,1,1.24,1.87,2.79,2.79,0,0,1-1.63,2.29A6.92,6.92,0,0,1,161.39,194Zm-38.73-22.67,36.61,21.06a5.58,5.58,0,0,0,4.94-.22c.67-.39,1.07-.88,1.07-1.32a1.14,1.14,0,0,0-.67-.89L128,168.92a5.61,5.61,0,0,0-4.94.23c-.67.39-1.07.88-1.07,1.31a1.14,1.14,0,0,0,.67.9Z"></path>
  <path class="cls-5" d="M66.19,169.87l29.06,16.69a6.12,6.12,0,0,0,5.51-.23h0c1.63-.94,1.81-2.36.4-3.18L72.1,166.46a6.08,6.08,0,0,0-5.51.23h0C65,167.63,64.78,169.05,66.19,169.87Z"></path>
  <path class="cls-3" d="M97.65,187.68a5.47,5.47,0,0,1-2.68-.63L65.91,170.36a2.18,2.18,0,0,1-1.23-1.87,2.8,2.8,0,0,1,1.63-2.29,6.63,6.63,0,0,1,6.07-.23l29.06,16.69a2.19,2.19,0,0,1,1.24,1.87,2.81,2.81,0,0,1-1.64,2.29A6.89,6.89,0,0,1,97.65,187.68Zm-31.18-18.3,29.06,16.69a5.6,5.6,0,0,0,5-.23c.67-.38,1.07-.87,1.07-1.31a1.15,1.15,0,0,0-.67-.89L71.82,167a5.6,5.6,0,0,0-4.95.22c-.67.39-1.07.88-1.07,1.32a1.17,1.17,0,0,0,.67.89Z"></path>
  <path class="cls-5" d="M52.67,177.09,64.81,184a6.12,6.12,0,0,0,5.51-.23h0c1.63-.94,1.81-2.36.4-3.18l-12.14-6.9a6.11,6.11,0,0,0-5.51.22h0C51.44,174.85,51.26,176.27,52.67,177.09Z"></path>
  <path class="cls-3" d="M67.21,185.11a5.45,5.45,0,0,1-2.68-.63l-12.14-6.91a2.17,2.17,0,0,1-1.23-1.87,2.79,2.79,0,0,1,1.63-2.28,6.63,6.63,0,0,1,6.07-.23L71,180.09A2.18,2.18,0,0,1,72.23,182a2.8,2.8,0,0,1-1.63,2.29A6.89,6.89,0,0,1,67.21,185.11ZM53,176.6l12.13,6.9a5.57,5.57,0,0,0,5-.23c.67-.38,1.07-.87,1.07-1.31a1.14,1.14,0,0,0-.68-.89l-12.13-6.9a5.6,5.6,0,0,0-4.95.22c-.67.39-1.06.88-1.06,1.31A1.14,1.14,0,0,0,53,176.6Z"></path>
  <path class="cls-5" d="M79.43,162.72l12.14,6.9a6.08,6.08,0,0,0,5.51-.23h0c1.63-.94,1.81-2.36.39-3.18l-12.13-6.9a6.08,6.08,0,0,0-5.51.23h0C78.2,160.48,78,161.9,79.43,162.72Z"></path>
  <path class="cls-3" d="M94,170.74a5.47,5.47,0,0,1-2.68-.63l-12.13-6.9a2.19,2.19,0,0,1-1.24-1.87,2.82,2.82,0,0,1,1.63-2.29,6.66,6.66,0,0,1,6.08-.23l12.13,6.9A2.19,2.19,0,0,1,99,167.59a2.8,2.8,0,0,1-1.63,2.29A6.93,6.93,0,0,1,94,170.74Zm-14.25-8.51,12.13,6.9a5.6,5.6,0,0,0,5-.22c.67-.39,1.07-.88,1.07-1.32a1.14,1.14,0,0,0-.67-.89l-12.13-6.9a5.6,5.6,0,0,0-5,.22c-.67.39-1.07.88-1.07,1.32A1.17,1.17,0,0,0,79.71,162.23Z"></path>
  <ellipse class="cls-5" cx="129.47" cy="200.13" rx="12.78" ry="7.38"></ellipse>
  <path class="cls-3" d="M129.47,208.06a19.09,19.09,0,0,1-9.32-2.23c-2.6-1.5-4-3.52-4-5.71s1.43-4.2,4-5.7h0c5.14-3,13.5-3,18.63,0,2.6,1.5,4,3.52,4,5.7s-1.43,4.21-4,5.71A19.08,19.08,0,0,1,129.47,208.06Zm-8.76-12.66c-2.23,1.28-3.46,3-3.46,4.72s1.23,3.45,3.46,4.73c4.83,2.79,12.68,2.79,17.51,0,2.23-1.28,3.46-3,3.46-4.73s-1.23-3.44-3.46-4.72c-4.83-2.79-12.68-2.79-17.51,0Z"></path>
  <path class="cls-4" d="M123.4,197.36a16.63,16.63,0,0,1,12.14,0c3.35,1.53,3.35,4,0,5.53a16.63,16.63,0,0,1-12.14,0C120,201.36,120,198.89,123.4,197.36Z"></path>
  <path class="cls-3" d="M129.47,204.6a15.78,15.78,0,0,1-6.31-1.19c-1.83-.84-2.84-2-2.84-3.28s1-2.45,2.84-3.29h0a17.37,17.37,0,0,1,12.61,0c1.83.84,2.84,2,2.84,3.29s-1,2.44-2.84,3.28A15.77,15.77,0,0,1,129.47,204.6Zm0-7.83a14.62,14.62,0,0,0-5.84,1.1h0c-1.39.63-2.18,1.46-2.18,2.26s.79,1.62,2.18,2.25a16,16,0,0,0,11.67,0c1.39-.63,2.19-1.45,2.19-2.25s-.8-1.63-2.19-2.26A14.61,14.61,0,0,0,129.47,196.77Z"></path>
  <line class="cls-6" x1="209.55" y1="47.69" x2="209.55" y2="49.19"></line>
  <line class="cls-7" x1="209.55" y1="52.24" x2="209.55" y2="154.39"></line>
  <line class="cls-6" x1="209.55" y1="155.91" x2="209.55" y2="157.41"></line>
  <path class="cls-3" d="M241.61,50.32,205.19,32.48c-1.11-.64-2.79-1.83-4.07-1.09L177.56,43.2c-1.28.73-.84,3.32.27,4L213.91,67.9a4.81,4.81,0,0,0,4.33-.18l23-13.27C242.49,53.71,242.72,51,241.61,50.32Z"></path>
  <path class="cls-3" d="M242.39,50.56a1.52,1.52,0,0,0-.58-.6h0L205.37,32.12,205,31.9c-1.16-.69-2.75-1.64-4.1-.86L177.37,42.83a2.23,2.23,0,0,0-1,2,3.12,3.12,0,0,0,1.25,2.65l36.09,20.74a5.16,5.16,0,0,0,4.73-.18l23-13.26A3.27,3.27,0,0,0,242.73,52,2.92,2.92,0,0,0,242.39,50.56Zm-1,.12a1.57,1.57,0,0,1,.5,1.34,2.47,2.47,0,0,1-.9,2.08L218,67.36a4.4,4.4,0,0,1-3.91.18L178,46.8a2.4,2.4,0,0,1-.84-1.94,1.51,1.51,0,0,1,.57-1.31L201.3,31.76c.95-.55,2.3.26,3.29.85l.39.23Z"></path>
  <path class="cls-5" d="M241.4,50.18,205.31,29.43a4.79,4.79,0,0,0-4.32.18L178,42.88c-1.28.74-1.42,1.86-.31,2.5l36.08,20.74a4.81,4.81,0,0,0,4.33-.18l23-13.27C242.37,51.93,242.5,50.82,241.4,50.18Z"></path>
  <path class="cls-3" d="M242.36,50.54a2,2,0,0,0-.76-.72h0L205.52,29.08a5.18,5.18,0,0,0-4.74.18l-23,13.26a2.18,2.18,0,0,0-1.27,1.77,1.67,1.67,0,0,0,1,1.44l36.09,20.74a5.18,5.18,0,0,0,4.73-.17l23-13.27a2.19,2.19,0,0,0,1.26-1.77A1.41,1.41,0,0,0,242.36,50.54Zm-1.17,0c.25.15.55.39.54.73s-.32.75-.85,1.06l-23,13.26a4.37,4.37,0,0,1-3.91.18L177.9,45a.92.92,0,0,1-.54-.73c0-.35.32-.75.86-1.06l23-13.26a4.43,4.43,0,0,1,3.92-.18l36.08,20.74Z"></path>
  <rect class="cls-5" x="214.92" y="67.2" width="1.78" height="0.47" transform="translate(141.23 280.89) rotate(-88.09)"></rect>
  <rect class="cls-5" x="177.92" y="46.6" width="1.78" height="0.47" transform="translate(126.07 224) rotate(-88.1)"></rect>
  <rect class="cls-5" x="239.58" y="53.83" width="1.78" height="0.47" transform="translate(178.39 292.6) rotate(-88.08)"></rect>
  <path class="cls-8" d="M198.84,46.17l17.68,10.21c.6.34.52.94-.16,1.34h0a2.59,2.59,0,0,1-2.31.09L196.37,47.6c-.59-.34-.52-.94.16-1.33h0A2.56,2.56,0,0,1,198.84,46.17Z"></path>
  <path class="cls-4" d="M217.12,56.53a1.12,1.12,0,0,0-.44-.42L199,45.9a2.86,2.86,0,0,0-2.62.09,1.27,1.27,0,0,0-.73,1,1,1,0,0,0,.56.85l17.68,10.21a2.88,2.88,0,0,0,2.63-.09,1.28,1.28,0,0,0,.72-1A.82.82,0,0,0,217.12,56.53Zm-20.8-9.39a.28.28,0,0,1,0-.12c0-.15.16-.34.41-.48a2.27,2.27,0,0,1,2-.1l17.69,10.22c.09.05.24.16.24.3s-.16.34-.41.48a2.27,2.27,0,0,1-2,.1L196.53,47.33A.63.63,0,0,1,196.32,47.14Z"></path>
  <path class="cls-8" d="M191.91,43.51a2.74,2.74,0,0,1,2.52,0,.77.77,0,0,1,0,1.45,2.8,2.8,0,0,1-2.52,0A.76.76,0,0,1,191.91,43.51Z"></path>
  <path class="cls-4" d="M195.13,43.75a1.46,1.46,0,0,0-.55-.52,3.07,3.07,0,0,0-2.83,0,1.08,1.08,0,0,0,0,2,3.16,3.16,0,0,0,2.84,0,1.21,1.21,0,0,0,.68-1A.92.92,0,0,0,195.13,43.75Zm-3.38.65a.34.34,0,0,1-.05-.17.6.6,0,0,1,.36-.45,2.46,2.46,0,0,1,2.21,0,.47.47,0,0,1,0,.91,2.52,2.52,0,0,1-2.21,0A.88.88,0,0,1,191.75,44.4Z"></path>
  <path class="cls-4" d="M204.27,43,222,53.25c.6.34.52.94-.16,1.33h0a2.56,2.56,0,0,1-2.31.1L201.8,44.46c-.59-.34-.52-.93.16-1.33h0A2.56,2.56,0,0,1,204.27,43Z"></path>
  <path class="cls-4" d="M222.55,53.39a1.19,1.19,0,0,0-.44-.42L204.43,42.76a2.86,2.86,0,0,0-2.62.1,1.25,1.25,0,0,0-.73,1,1,1,0,0,0,.56.85L219.32,55a2.86,2.86,0,0,0,2.63-.1,1.24,1.24,0,0,0,.72-1A.86.86,0,0,0,222.55,53.39ZM204.12,43.31,221.8,53.52c.09,0,.24.16.24.31s-.16.33-.41.48a2.23,2.23,0,0,1-2,.09L202,44.19c-.09,0-.25-.16-.25-.3s.16-.34.41-.49a2.28,2.28,0,0,1,2-.09Z"></path>
  <path class="cls-4" d="M197.34,40.37a2.8,2.8,0,0,1,2.52,0,.77.77,0,0,1,0,1.46,2.8,2.8,0,0,1-2.52,0A.77.77,0,0,1,197.34,40.37Z"></path>
  <path class="cls-4" d="M200.56,40.61a1.48,1.48,0,0,0-.54-.51,3.09,3.09,0,0,0-2.84,0,1.08,1.08,0,0,0,0,2,3.09,3.09,0,0,0,2.84,0,1.2,1.2,0,0,0,.68-1A1,1,0,0,0,200.56,40.61Zm-3.38.66a.41.41,0,0,1-.05-.17c0-.16.13-.32.36-.46a2.52,2.52,0,0,1,2.21,0c.23.14.36.3.36.46a.6.6,0,0,1-.36.45,2.46,2.46,0,0,1-2.21,0A.78.78,0,0,1,197.18,41.27Z"></path>
  <path class="cls-8" d="M209.7,39.9l17.68,10.21c.6.34.52.94-.16,1.34h0a2.59,2.59,0,0,1-2.31.09L207.23,41.33c-.59-.34-.52-.94.16-1.33h0A2.56,2.56,0,0,1,209.7,39.9Z"></path>
  <path class="cls-4" d="M228,50.26a1.12,1.12,0,0,0-.44-.42L209.86,39.63a2.86,2.86,0,0,0-2.62.09,1.27,1.27,0,0,0-.73,1,1,1,0,0,0,.56.85l17.68,10.21a2.88,2.88,0,0,0,2.63-.09,1.25,1.25,0,0,0,.72-1A.82.82,0,0,0,228,50.26Zm-20.8-9.39a.28.28,0,0,1,0-.12c0-.15.16-.34.41-.48a2.29,2.29,0,0,1,2-.1l17.68,10.22c.09,0,.24.16.24.3s-.16.34-.41.48a2.27,2.27,0,0,1-2,.1L207.39,41.06A.63.63,0,0,1,207.18,40.87Z"></path>
  <path class="cls-8" d="M202.77,37.24a2.74,2.74,0,0,1,2.52,0,.77.77,0,0,1,0,1.45,2.8,2.8,0,0,1-2.52,0A.76.76,0,0,1,202.77,37.24Z"></path>
  <path class="cls-4" d="M206,37.48a1.5,1.5,0,0,0-.54-.52,3.09,3.09,0,0,0-2.84,0,1.08,1.08,0,0,0,0,2,3.16,3.16,0,0,0,2.84,0,1.21,1.21,0,0,0,.68-1A.92.92,0,0,0,206,37.48Zm-3.38.65a.34.34,0,0,1-.05-.17.6.6,0,0,1,.36-.45,2.46,2.46,0,0,1,2.21,0,.64.64,0,0,1,.37.45c0,.16-.14.32-.37.46a2.52,2.52,0,0,1-2.21,0A.88.88,0,0,1,202.61,38.13Z"></path>
  <line class="cls-6" x1="75.91" y1="44.25" x2="75.91" y2="45.75"></line>
  <line class="cls-9" x1="75.91" y1="48.79" x2="75.91" y2="169.12"></line>
  <line class="cls-6" x1="75.91" y1="170.64" x2="75.91" y2="172.14"></line>
  <path class="cls-3" d="M82.72,43l-4.36-.8a4.81,4.81,0,0,0-4.33.18l-4.87,1c-1.28.73-.84,3.31.27,4l4.28,2.44A4.81,4.81,0,0,0,78,49.64l4.29-2.47C83.61,46.43,83.83,43.67,82.72,43Z"></path>
  <path class="cls-3" d="M83.51,43.27a1.64,1.64,0,0,0-.58-.59l-.13,0-4.3-.79a5.24,5.24,0,0,0-4.62.18l-4.92,1a2.22,2.22,0,0,0-1,2,3.13,3.13,0,0,0,1.26,2.65l4.28,2.44A5.19,5.19,0,0,0,78.24,50l4.29-2.48a3.27,3.27,0,0,0,1.32-2.79A2.92,2.92,0,0,0,83.51,43.27Zm-.94.15A1.66,1.66,0,0,1,83,44.73a2.46,2.46,0,0,1-.91,2.08l-4.29,2.48a4.44,4.44,0,0,1-3.91.18L69.63,47a2.4,2.4,0,0,1-.84-1.94,1.56,1.56,0,0,1,.53-1.28l4.92-1.05a4.44,4.44,0,0,1,3.91-.18l.13.05Z"></path>
  <path class="cls-4" d="M82.51,42.89l-4.28-2.44a4.81,4.81,0,0,0-4.33.18l-4.29,2.48c-1.28.74-1.42,1.86-.31,2.5l4.29,2.44a4.86,4.86,0,0,0,4.32-.18l4.29-2.48C83.48,44.65,83.62,43.53,82.51,42.89Z"></path>
  <path class="cls-3" d="M83.47,43.26a2,2,0,0,0-.76-.73h0l-4.28-2.44a5.22,5.22,0,0,0-4.73.18l-4.29,2.48a2.18,2.18,0,0,0-1.27,1.77,1.68,1.68,0,0,0,1,1.44l4.28,2.44a5.18,5.18,0,0,0,4.74-.18l4.28-2.48A2.17,2.17,0,0,0,83.67,44,1.39,1.39,0,0,0,83.47,43.26Zm-1.16,0a.92.92,0,0,1,.54.72c0,.36-.32.75-.86,1.06L77.7,47.51a4.44,4.44,0,0,1-3.91.18l-4.28-2.44a.93.93,0,0,1-.55-.73c0-.35.32-.75.86-1.06L74.11,41A4.37,4.37,0,0,1,78,40.81Z"></path>
  <rect class="cls-5" x="74.73" y="49.13" width="1.78" height="0.47" transform="translate(23.75 123.28) rotate(-88.08)"></rect>
  <rect class="cls-5" x="69.52" y="46.83" width="1.78" height="0.47" transform="translate(21.01 115.87) rotate(-88.08)"></rect>
  <rect class="cls-5" x="80.7" y="46.55" width="1.78" height="0.47" transform="translate(32.12 126.77) rotate(-88.09)"></rect>
  <line class="cls-6" x1="61.69" y1="98.97" x2="61.69" y2="100.47"></line>
  <line class="cls-10" x1="61.69" y1="103.54" x2="61.69" y2="175.72"></line>
  <line class="cls-6" x1="61.69" y1="177.25" x2="61.69" y2="178.75"></line>
  <path class="cls-3" d="M68.51,97.76,64.14,97a4.79,4.79,0,0,0-4.32.18l-4.87,1c-1.28.74-.84,3.32.27,4l4.28,2.44a4.81,4.81,0,0,0,4.33-.18l4.28-2.48C69.39,101.15,69.62,98.4,68.51,97.76Z"></path>
  <path class="cls-3" d="M69.29,98a1.52,1.52,0,0,0-.58-.6l-.13-.05-4.3-.79a5.22,5.22,0,0,0-4.61.18l-4.93,1.05a2.25,2.25,0,0,0-1,2A3.09,3.09,0,0,0,55,102.46l4.29,2.44a5.16,5.16,0,0,0,4.73-.18l4.29-2.47a3.27,3.27,0,0,0,1.31-2.79A2.92,2.92,0,0,0,69.29,98Zm-.93.15a1.62,1.62,0,0,1,.45,1.3,2.45,2.45,0,0,1-.9,2.08L63.62,104a4.4,4.4,0,0,1-3.91.18l-4.29-2.44a2.39,2.39,0,0,1-.84-1.94,1.54,1.54,0,0,1,.52-1.27L60,97.49a4.46,4.46,0,0,1,3.92-.18l.13,0Z"></path>
  <path class="cls-5" d="M68.3,97.61,64,95.18a4.82,4.82,0,0,0-4.32.17L55.4,97.83c-1.28.74-1.42,1.86-.31,2.5l4.28,2.44a4.81,4.81,0,0,0,4.33-.18L68,100.11C69.27,99.37,69.4,98.25,68.3,97.61Z"></path>
  <path class="cls-3" d="M69.26,98a2,2,0,0,0-.76-.72h0l-4.28-2.44a5.18,5.18,0,0,0-4.74.18L55.2,97.48a2.17,2.17,0,0,0-1.27,1.77,1.7,1.7,0,0,0,1,1.44l4.29,2.44A5.22,5.22,0,0,0,63.9,103l4.29-2.48a2.19,2.19,0,0,0,1.26-1.77A1.39,1.39,0,0,0,69.26,98Zm-1.17,0a.9.9,0,0,1,.54.73c0,.35-.31.75-.85,1.06l-4.29,2.47a4.37,4.37,0,0,1-3.91.18L55.29,100a.92.92,0,0,1-.54-.72c0-.36.32-.75.86-1.06l4.28-2.48a4.46,4.46,0,0,1,3.92-.18Z"></path>
  <rect class="cls-5" x="60.51" y="103.85" width="1.78" height="0.47" transform="translate(-44.68 161.97) rotate(-88.08)"></rect>
  <rect class="cls-5" x="55.31" y="101.56" width="1.78" height="0.47" transform="matrix(0.03, -1, 1, 0.03, -47.41, 154.57)"></rect>
  <rect class="cls-5" x="66.48" y="101.27" width="1.78" height="0.47" transform="translate(-36.32 165.47) rotate(-88.09)"></rect>
  <line class="cls-6" x1="175.88" y1="75.4" x2="175.88" y2="76.9"></line>
  <line class="cls-11" x1="175.88" y1="79.81" x2="175.88" y2="165.69"></line>
  <line class="cls-6" x1="175.88" y1="167.14" x2="175.88" y2="168.64"></line>
  <path class="cls-3" d="M182.7,74.18l-4.37-.8a4.79,4.79,0,0,0-4.32.18l-4.87,1c-1.28.73-.84,3.31.27,4L173.69,81a4.81,4.81,0,0,0,4.33-.18l4.29-2.47C183.59,77.58,183.81,74.82,182.7,74.18Z"></path>
  <path class="cls-3" d="M183.49,74.42a1.64,1.64,0,0,0-.58-.59l-.14,0-4.3-.79a5.22,5.22,0,0,0-4.61.18l-4.93,1a2.23,2.23,0,0,0-1,2,3.12,3.12,0,0,0,1.25,2.65l4.29,2.44a5.19,5.19,0,0,0,4.73-.18l4.29-2.48a3.26,3.26,0,0,0,1.31-2.79A2.92,2.92,0,0,0,183.49,74.42Zm-.94.15a1.64,1.64,0,0,1,.45,1.31,2.46,2.46,0,0,1-.9,2.08l-4.29,2.48a4.44,4.44,0,0,1-3.91.18l-4.29-2.44a2.4,2.4,0,0,1-.84-1.94,1.56,1.56,0,0,1,.52-1.28l4.92-1a4.46,4.46,0,0,1,3.92-.18l.13,0Z"></path>
  <path class="cls-5" d="M182.49,74l-4.28-2.44a4.81,4.81,0,0,0-4.33.18l-4.29,2.48c-1.28.74-1.42,1.86-.31,2.5l4.28,2.43a4.84,4.84,0,0,0,4.33-.17l4.29-2.48C183.46,75.8,183.6,74.68,182.49,74Z"></path>
  <path class="cls-3" d="M183.45,74.41a2.06,2.06,0,0,0-.76-.73h0l-4.28-2.44a5.22,5.22,0,0,0-4.73.18l-4.29,2.48a2.18,2.18,0,0,0-1.27,1.77,1.68,1.68,0,0,0,1,1.44l4.28,2.44a5.16,5.16,0,0,0,4.73-.18l4.29-2.48a2.17,2.17,0,0,0,1.27-1.77A1.39,1.39,0,0,0,183.45,74.41Zm-1.17,0a.94.94,0,0,1,.55.72c0,.36-.32.75-.86,1.06l-4.29,2.48a4.44,4.44,0,0,1-3.91.18l-4.29-2.44a.92.92,0,0,1-.54-.73c0-.35.32-.75.86-1.06l4.29-2.48A4.4,4.4,0,0,1,178,72Z"></path>
  <rect class="cls-5" x="174.7" y="80.28" width="1.78" height="0.47" transform="translate(89.25 253.31) rotate(-88.08)"></rect>
  <rect class="cls-5" x="169.5" y="77.98" width="1.78" height="0.47" transform="matrix(0.03, -1, 1, 0.03, 86.53, 245.91)"></rect>
  <rect class="cls-5" x="180.68" y="77.7" width="1.78" height="0.47" transform="translate(97.64 256.8) rotate(-88.09)"></rect>
  <line class="cls-6" x1="88.79" y1="77.18" x2="88.79" y2="78.68"></line>
  <line class="cls-12" x1="88.79" y1="81.59" x2="88.79" y2="161.67"></line>
  <line class="cls-6" x1="88.79" y1="163.13" x2="88.79" y2="164.63"></line>
  <path class="cls-3" d="M95.61,76l-4.37-.8a4.81,4.81,0,0,0-4.33.18l-4.87,1c-1.28.74-.83,3.32.27,4l4.29,2.44a4.79,4.79,0,0,0,4.32-.18l4.29-2.48C96.49,79.36,96.71,76.6,95.61,76Z"></path>
  <path class="cls-3" d="M96.39,76.21a1.52,1.52,0,0,0-.58-.6l-.13,0-4.3-.79a5.22,5.22,0,0,0-4.61.18l-4.93,1a2.22,2.22,0,0,0-1,2,3.13,3.13,0,0,0,1.26,2.65l4.28,2.44a5.18,5.18,0,0,0,4.74-.18l4.29-2.48a3.29,3.29,0,0,0,1.31-2.79A2.91,2.91,0,0,0,96.39,76.21Zm-.94.14a1.66,1.66,0,0,1,.46,1.31,2.45,2.45,0,0,1-.9,2.08l-4.29,2.48a4.46,4.46,0,0,1-3.92.18L82.52,80A2.42,2.42,0,0,1,81.67,78a1.59,1.59,0,0,1,.53-1.28l4.92-1A4.37,4.37,0,0,1,91,75.52l.13,0Z"></path>
  <path class="cls-5" d="M95.39,75.82l-4.28-2.44a4.79,4.79,0,0,0-4.32.18L82.5,76c-1.28.74-1.42,1.86-.31,2.5L86.47,81a4.79,4.79,0,0,0,4.32-.18l4.29-2.48C96.36,77.58,96.5,76.46,95.39,75.82Z"></path>
  <path class="cls-3" d="M96.36,76.19a2,2,0,0,0-.76-.72h0L91.31,73a5.16,5.16,0,0,0-4.73.18l-4.29,2.48A2.16,2.16,0,0,0,81,77.45a1.67,1.67,0,0,0,1,1.44l4.29,2.44A5.16,5.16,0,0,0,91,81.15l4.29-2.48a2.16,2.16,0,0,0,1.26-1.76A1.49,1.49,0,0,0,96.36,76.19Zm-1.17,0a.9.9,0,0,1,.54.73c0,.35-.32.74-.85,1l-4.29,2.48a4.43,4.43,0,0,1-3.92.18l-4.28-2.44a.9.9,0,0,1-.54-.73,1.42,1.42,0,0,1,.85-1L87,73.92a4.43,4.43,0,0,1,3.92-.18Z"></path>
  <rect class="cls-5" x="87.61" y="82.06" width="1.78" height="0.47" transform="translate(3.29 167.99) rotate(-88.08)"></rect>
  <rect class="cls-5" x="82.41" y="79.76" width="1.78" height="0.47" transform="matrix(0.03, -1, 1, 0.03, 0.56, 160.58)"></rect>
  <rect class="cls-5" x="93.58" y="79.48" width="1.78" height="0.47" transform="translate(11.66 171.48) rotate(-88.09)"></rect>
  <line class="cls-6" x1="143.22" y1="25.27" x2="143.22" y2="26.77"></line>
  <line class="cls-13" x1="143.22" y1="29.74" x2="143.22" y2="147.01"></line>
  <line class="cls-6" x1="143.22" y1="148.5" x2="143.22" y2="150"></line>
  <path class="cls-3" d="M185.74,23.55,146.57,2.62a4.79,4.79,0,0,0-4.32.18L99.56,25.65c-1.28.74-.84,3.32.26,4l39.09,22.57a4.79,4.79,0,0,0,4.32-.18l42.11-24.32C186.62,26.94,186.85,24.19,185.74,23.55Z"></path>
  <path class="cls-3" d="M186.52,23.79a1.59,1.59,0,0,0-.58-.6h0L146.77,2.26a5.19,5.19,0,0,0-4.73.19L99.36,25.29a2.23,2.23,0,0,0-1,2A3.13,3.13,0,0,0,99.62,30L138.7,52.53a5.18,5.18,0,0,0,4.74-.18L185.55,28a3.27,3.27,0,0,0,1.31-2.79A2.92,2.92,0,0,0,186.52,23.79Zm-1,.12a1.54,1.54,0,0,1,.5,1.34,2.46,2.46,0,0,1-.9,2.08L143,51.64a4.4,4.4,0,0,1-3.91.18L100,29.26a2.42,2.42,0,0,1-.85-1.94A1.51,1.51,0,0,1,99.76,26L142.44,3.16A4.45,4.45,0,0,1,146.37,3Z"></path>
  <path class="cls-5" d="M185.53,23.41,146.45.84a4.81,4.81,0,0,0-4.33.18L100,25.34c-1.28.74-1.42,1.85-.31,2.49L138.78,50.4a4.79,4.79,0,0,0,4.32-.18L185.22,25.9C186.5,25.17,186.63,24.05,185.53,23.41Z"></path>
  <path class="cls-3" d="M186.49,23.77a2.12,2.12,0,0,0-.76-.72L146.65.49a5.16,5.16,0,0,0-4.73.18L99.8,25a2.19,2.19,0,0,0-1.26,1.77,1.7,1.7,0,0,0,.95,1.44l39.08,22.56a5.18,5.18,0,0,0,4.74-.18l42.11-24.31a2.17,2.17,0,0,0,1.26-1.77A1.41,1.41,0,0,0,186.49,23.77Zm-1.17,0a.93.93,0,0,1,.54.73c0,.36-.32.75-.85,1.06L142.9,49.86A4.43,4.43,0,0,1,139,50L99.9,27.48a.92.92,0,0,1-.54-.73c0-.35.32-.75.85-1.06L142.33,1.38a4.44,4.44,0,0,1,3.91-.18Z"></path>
  <rect class="cls-5" x="139.92" y="51.48" width="1.78" height="0.47" transform="translate(84.44 190.72) rotate(-88.09)"></rect>
  <rect class="cls-5" x="99.92" y="29.06" width="1.78" height="0.47" transform="translate(68.15 129.07) rotate(-88.08)"></rect>
  <rect class="cls-5" x="183.71" y="27.06" width="1.78" height="0.47" transform="translate(151.14 210.89) rotate(-88.08)"></rect>
  <path class="cls-8" d="M136.25,16.88l25.51,14.73c.59.34.52.94-.17,1.33h0a2.54,2.54,0,0,1-2.3.1L133.77,18.31c-.59-.34-.52-.94.17-1.33h0A2.59,2.59,0,0,1,136.25,16.88Z"></path>
  <path class="cls-4" d="M162.36,31.76a1.05,1.05,0,0,0-.44-.42L136.41,16.61a2.86,2.86,0,0,0-2.63.1,1.24,1.24,0,0,0-.72,1,1,1,0,0,0,.55.86l25.52,14.72a2.86,2.86,0,0,0,2.62-.09,1.27,1.27,0,0,0,.73-1A.8.8,0,0,0,162.36,31.76ZM133.72,17.85a.21.21,0,0,1,0-.12c0-.15.15-.33.41-.48a2.26,2.26,0,0,1,2-.09L161.6,31.88c.09.05.25.16.24.31s-.15.33-.4.48a2.25,2.25,0,0,1-2,.09L133.93,18A.62.62,0,0,1,133.72,17.85Z"></path>
  <path class="cls-8" d="M129.31,14.22a2.8,2.8,0,0,1,2.52,0c.7.4.7,1,0,1.46a2.8,2.8,0,0,1-2.52,0C128.61,15.27,128.61,14.62,129.31,14.22Z"></path>
  <path class="cls-4" d="M132.54,14.46A1.52,1.52,0,0,0,132,14a3.09,3.09,0,0,0-2.84,0,1.08,1.08,0,0,0,0,2A3.09,3.09,0,0,0,132,16a1.18,1.18,0,0,0,.68-1A1.05,1.05,0,0,0,132.54,14.46Zm-3.39.66a.41.41,0,0,1-.05-.17c0-.16.14-.32.37-.46a2.5,2.5,0,0,1,2.2,0c.24.14.37.3.37.46s-.13.32-.37.45a2.44,2.44,0,0,1-2.2,0A.82.82,0,0,1,129.15,15.12Z"></path>
  <path class="cls-4" d="M141.68,13.75l25.51,14.72c.59.35.52.94-.16,1.34h0a2.59,2.59,0,0,1-2.31.09L139.2,15.18c-.59-.34-.51-.94.17-1.34h0A2.59,2.59,0,0,1,141.68,13.75Z"></path>
  <path class="cls-4" d="M167.79,28.62a1.12,1.12,0,0,0-.44-.42L141.84,13.48a2.88,2.88,0,0,0-2.63.09,1.25,1.25,0,0,0-.72,1,1,1,0,0,0,.55.85l25.52,14.73a2.89,2.89,0,0,0,2.62-.1,1.27,1.27,0,0,0,.73-1A.82.82,0,0,0,167.79,28.62ZM141.52,14,167,28.75c.09.05.25.16.25.3s-.16.34-.41.48a2.25,2.25,0,0,1-2,.1L139.36,14.9c-.09-.05-.24-.16-.24-.3s.15-.34.41-.48a2.26,2.26,0,0,1,2-.1Z"></path>
  <path class="cls-4" d="M134.74,11.08a2.8,2.8,0,0,1,2.52,0c.7.41.7,1.06,0,1.46a2.8,2.8,0,0,1-2.52,0C134,12.14,134,11.49,134.74,11.08Z"></path>
  <path class="cls-4" d="M138,11.33a1.46,1.46,0,0,0-.55-.52,3.09,3.09,0,0,0-2.84,0,1.18,1.18,0,0,0-.68,1,1.17,1.17,0,0,0,.68,1,3.09,3.09,0,0,0,2.84,0,1.18,1.18,0,0,0,.68-1A1,1,0,0,0,138,11.33Zm-3.39.65a.34.34,0,0,1-.05-.17c0-.15.14-.32.37-.45a2.44,2.44,0,0,1,2.2,0c.23.13.37.29.37.45s-.13.32-.37.46a2.5,2.5,0,0,1-2.2,0A.92.92,0,0,1,134.58,12Z"></path>
  <path class="cls-8" d="M147.11,10.61l25.51,14.73c.59.34.52.94-.16,1.33h0a2.56,2.56,0,0,1-2.31.1L144.63,12c-.59-.34-.51-.94.17-1.33h0A2.56,2.56,0,0,1,147.11,10.61Z"></path>
  <path class="cls-4" d="M173.22,25.49a1.05,1.05,0,0,0-.44-.42L147.27,10.34a2.86,2.86,0,0,0-2.63.1,1.24,1.24,0,0,0-.72,1,1,1,0,0,0,.56.86L170,27a2.83,2.83,0,0,0,2.62-.1,1.24,1.24,0,0,0,.73-1A.8.8,0,0,0,173.22,25.49ZM144.58,11.58a.21.21,0,0,1,0-.12c0-.15.16-.33.41-.48a2.23,2.23,0,0,1,2-.09l25.51,14.72c.09.05.25.16.25.31s-.16.33-.41.48a2.25,2.25,0,0,1-2,.09L144.79,11.77A.62.62,0,0,1,144.58,11.58Z"></path>
  <path class="cls-8" d="M140.17,8a2.8,2.8,0,0,1,2.52,0c.7.4.7,1,0,1.46a2.8,2.8,0,0,1-2.52,0C139.47,9,139.47,8.35,140.17,8Z"></path>
  <path class="cls-4" d="M143.4,8.19a1.52,1.52,0,0,0-.55-.51,3.09,3.09,0,0,0-2.84,0,1.17,1.17,0,0,0-.68,1,1.18,1.18,0,0,0,.68,1,3.09,3.09,0,0,0,2.84,0,1.18,1.18,0,0,0,.68-1A1,1,0,0,0,143.4,8.19ZM140,8.85a.41.41,0,0,1,0-.17c0-.16.14-.32.37-.46a2.5,2.5,0,0,1,2.2,0c.24.14.37.3.37.46a.6.6,0,0,1-.36.45,2.46,2.46,0,0,1-2.21,0A.82.82,0,0,1,140,8.85Z"></path>
  <path class="cls-8" d="M119.88,26.24,145.39,41c.59.34.52.94-.17,1.33h0a2.56,2.56,0,0,1-2.31.1L117.4,27.67c-.59-.34-.52-.93.17-1.33h0A2.59,2.59,0,0,1,119.88,26.24Z"></path>
  <path class="cls-4" d="M146,41.12a1.12,1.12,0,0,0-.44-.42L120,26a2.86,2.86,0,0,0-2.62.1,1.24,1.24,0,0,0-.72,1,1,1,0,0,0,.55.86l25.52,14.72a2.86,2.86,0,0,0,2.62-.09,1.23,1.23,0,0,0,.72-1A.89.89,0,0,0,146,41.12ZM117.35,27.21a.21.21,0,0,1,0-.12c0-.15.15-.33.4-.48a2.28,2.28,0,0,1,2-.09l25.51,14.72c.09.06.24.17.24.31s-.15.33-.4.48a2.29,2.29,0,0,1-2,.1L117.56,27.4A.62.62,0,0,1,117.35,27.21Z"></path>
  <path class="cls-8" d="M112.94,23.58a2.8,2.8,0,0,1,2.52,0c.7.4.7,1.05,0,1.46a2.8,2.8,0,0,1-2.52,0C112.24,24.63,112.24,24,112.94,23.58Z"></path>
  <path class="cls-4" d="M116.17,23.82a1.52,1.52,0,0,0-.55-.51,3.09,3.09,0,0,0-2.84,0,1.08,1.08,0,0,0,0,2,3.09,3.09,0,0,0,2.84,0,1.18,1.18,0,0,0,.68-1A1.09,1.09,0,0,0,116.17,23.82Zm-3.39.66a.41.41,0,0,1,0-.17c0-.16.13-.32.37-.46a2.5,2.5,0,0,1,2.2,0c.23.14.37.3.37.46s-.13.32-.37.45a2.44,2.44,0,0,1-2.2,0A.82.82,0,0,1,112.78,24.48Z"></path>
  <path class="cls-4" d="M125.31,23.11l25.51,14.72c.59.35.52.94-.17,1.34h0a2.53,2.53,0,0,1-2.3.09L122.83,24.54c-.59-.34-.52-.94.17-1.33h0A2.56,2.56,0,0,1,125.31,23.11Z"></path>
  <path class="cls-4" d="M151.42,38a1.27,1.27,0,0,0-.44-.42L125.46,22.84a2.86,2.86,0,0,0-2.62.09,1.25,1.25,0,0,0-.72,1,1,1,0,0,0,.55.85l25.52,14.73a2.89,2.89,0,0,0,2.62-.1,1.25,1.25,0,0,0,.73-1A.82.82,0,0,0,151.42,38Zm-26.27-14.6,25.51,14.73c.09,0,.24.16.24.3s-.15.34-.4.48a2.25,2.25,0,0,1-2,.1L123,24.27c-.09-.06-.24-.16-.24-.31s.15-.34.41-.48a2.26,2.26,0,0,1,2-.1Z"></path>
  <path class="cls-4" d="M118.37,20.45a2.74,2.74,0,0,1,2.52,0,.76.76,0,0,1,0,1.45,2.8,2.8,0,0,1-2.52,0A.76.76,0,0,1,118.37,20.45Z"></path>
  <path class="cls-4" d="M121.6,20.69a1.54,1.54,0,0,0-.55-.52,3.09,3.09,0,0,0-2.84,0,1.19,1.19,0,0,0-.68,1,1.17,1.17,0,0,0,.68,1,3.09,3.09,0,0,0,2.84,0,1.17,1.17,0,0,0,.68-1A1,1,0,0,0,121.6,20.69Zm-3.39.65a.34.34,0,0,1,0-.17c0-.15.14-.32.37-.45a2.44,2.44,0,0,1,2.2,0c.23.13.37.3.37.45s-.13.32-.37.46a2.5,2.5,0,0,1-2.2,0A.92.92,0,0,1,118.21,21.34Z"></path>
  <path class="cls-8" d="M130.74,20,156.25,34.7c.59.34.52.94-.17,1.33h0a2.54,2.54,0,0,1-2.3.1L128.26,21.4c-.59-.34-.52-.94.17-1.33h0A2.59,2.59,0,0,1,130.74,20Z"></path>
  <path class="cls-4" d="M156.85,34.85a1.12,1.12,0,0,0-.44-.42L130.89,19.7a2.87,2.87,0,0,0-2.62.1,1.24,1.24,0,0,0-.72,1,1,1,0,0,0,.55.86L153.62,36.4a2.86,2.86,0,0,0,2.62-.09,1.27,1.27,0,0,0,.73-1A.8.8,0,0,0,156.85,34.85ZM128.21,20.94a.21.21,0,0,1,0-.12c0-.15.15-.33.41-.48a2.26,2.26,0,0,1,2-.09L156.09,35c.09.05.25.16.24.31s-.15.33-.4.48a2.29,2.29,0,0,1-2,.1L128.42,21.13A.62.62,0,0,1,128.21,20.94Z"></path>
  <path class="cls-8" d="M123.8,17.31a2.8,2.8,0,0,1,2.52,0c.7.4.7,1.05,0,1.46a2.8,2.8,0,0,1-2.52,0C123.1,18.36,123.1,17.71,123.8,17.31Z"></path>
  <path class="cls-4" d="M127,17.55a1.52,1.52,0,0,0-.55-.51,3.09,3.09,0,0,0-2.84,0,1.08,1.08,0,0,0,0,2,3.09,3.09,0,0,0,2.84,0,1.18,1.18,0,0,0,.68-1A1.05,1.05,0,0,0,127,17.55Zm-3.39.66a.41.41,0,0,1,0-.17c0-.16.14-.32.37-.46a2.5,2.5,0,0,1,2.2,0c.24.14.37.3.37.46s-.13.32-.37.45a2.44,2.44,0,0,1-2.2,0A.82.82,0,0,1,123.64,18.21Z"></path>
  <line class="cls-6" x1="157.63" y1="119" x2="157.63" y2="120.5"></line>
  <line class="cls-14" x1="157.63" y1="123.39" x2="157.63" y2="185.54"></line>
  <line class="cls-6" x1="157.63" y1="186.99" x2="157.63" y2="188.49"></line>
  <path class="cls-3" d="M164.45,114.3l-4.37-.81a4.79,4.79,0,0,0-4.32.18l-4.87,1c-1.28.74-.84,3.32.27,4l4.28,2.44a4.79,4.79,0,0,0,4.32-.18l4.29-2.48C165.33,117.69,165.56,114.94,164.45,114.3Z"></path>
  <path class="cls-3" d="M165.23,114.54a1.52,1.52,0,0,0-.58-.6l-.13,0-4.3-.79a5.22,5.22,0,0,0-4.61.19l-4.93,1a2.25,2.25,0,0,0-1,2A3.09,3.09,0,0,0,151,119l4.29,2.45a5.22,5.22,0,0,0,4.73-.18l4.29-2.48a3.27,3.27,0,0,0,1.31-2.79A2.92,2.92,0,0,0,165.23,114.54Zm-.93.15a1.63,1.63,0,0,1,.45,1.31,2.47,2.47,0,0,1-.9,2.08l-4.29,2.47a4.39,4.39,0,0,1-3.92.18l-4.28-2.44a2.39,2.39,0,0,1-.84-1.94,1.54,1.54,0,0,1,.52-1.27l4.92-1a4.46,4.46,0,0,1,3.92-.18l.13.05Z"></path>
  <path class="cls-4" d="M164.24,114.16,160,111.72a4.79,4.79,0,0,0-4.32.18l-4.29,2.47c-1.28.74-1.42,1.86-.31,2.5l4.28,2.44a4.81,4.81,0,0,0,4.33-.18l4.29-2.48C165.21,115.91,165.34,114.8,164.24,114.16Z"></path>
  <path class="cls-3" d="M165.2,114.52a2,2,0,0,0-.76-.72h0l-4.28-2.44a5.18,5.18,0,0,0-4.74.18L151.13,114a2.17,2.17,0,0,0-1.26,1.77,1.7,1.7,0,0,0,.95,1.44l4.29,2.44a5.22,5.22,0,0,0,4.73-.18l4.29-2.48a2.19,2.19,0,0,0,1.26-1.77A1.39,1.39,0,0,0,165.2,114.52Zm-1.17,0a.92.92,0,0,1,.54.73c0,.35-.32.75-.85,1.06l-4.29,2.48a4.4,4.4,0,0,1-3.91.17l-4.29-2.44a.92.92,0,0,1-.54-.72c0-.36.32-.75.85-1.06l4.29-2.48a4.46,4.46,0,0,1,3.92-.18Z"></path>
  <rect class="cls-5" x="156.45" y="120.39" width="1.78" height="0.47" transform="translate(31.52 273.85) rotate(-88.08)"></rect>
  <rect class="cls-5" x="151.25" y="118.1" width="1.78" height="0.47" transform="translate(28.78 266.43) rotate(-88.08)"></rect>
  <rect class="cls-5" x="162.42" y="117.81" width="1.78" height="0.47" transform="translate(39.9 277.34) rotate(-88.09)"></rect>
  <line class="cls-6" x1="192.81" y1="131.73" x2="192.81" y2="133.23"></line>
  <line class="cls-15" x1="192.81" y1="136.44" x2="192.81" y2="160.48"></line>
  <line class="cls-6" x1="192.81" y1="162.08" x2="192.81" y2="163.58"></line>
  <path class="cls-3" d="M199.63,127l-4.37-.81a4.79,4.79,0,0,0-4.32.18l-4.87,1c-1.28.74-.84,3.32.27,4l4.28,2.44a4.79,4.79,0,0,0,4.32-.18l4.29-2.48C200.51,130.42,200.74,127.67,199.63,127Z"></path>
  <path class="cls-3" d="M200.41,127.27a1.59,1.59,0,0,0-.58-.6l-.13,0-4.3-.79a5.22,5.22,0,0,0-4.61.18l-4.93,1a2.21,2.21,0,0,0-1,2,3.09,3.09,0,0,0,1.25,2.65l4.29,2.44a5.16,5.16,0,0,0,4.73-.18l4.29-2.48a3.29,3.29,0,0,0,1.31-2.79A2.91,2.91,0,0,0,200.41,127.27Zm-.94.14a1.63,1.63,0,0,1,.46,1.31,2.45,2.45,0,0,1-.9,2.08l-4.29,2.48a4.43,4.43,0,0,1-3.92.18L186.54,131a2.39,2.39,0,0,1-.84-1.94,1.54,1.54,0,0,1,.52-1.27l4.92-1a4.41,4.41,0,0,1,3.91-.18l.14,0Z"></path>
  <path class="cls-4" d="M199.41,126.88l-4.28-2.44a4.79,4.79,0,0,0-4.32.18l-4.29,2.48c-1.28.74-1.42,1.86-.31,2.5l4.28,2.44a4.79,4.79,0,0,0,4.32-.18l4.29-2.48C200.38,128.64,200.52,127.52,199.41,126.88Z"></path>
  <path class="cls-3" d="M200.38,127.25a2,2,0,0,0-.76-.72h0l-4.29-2.44a5.16,5.16,0,0,0-4.73.18l-4.29,2.48a2.16,2.16,0,0,0-1.26,1.76A1.67,1.67,0,0,0,186,130l4.29,2.44a5.16,5.16,0,0,0,4.73-.18l4.29-2.47a2.19,2.19,0,0,0,1.26-1.77A1.39,1.39,0,0,0,200.38,127.25Zm-1.17,0a.9.9,0,0,1,.54.73,1.42,1.42,0,0,1-.85,1.05l-4.29,2.48a4.41,4.41,0,0,1-3.91.18l-4.29-2.44a.9.9,0,0,1-.54-.73c0-.35.32-.74.85-1L191,125a4.43,4.43,0,0,1,3.92-.18Z"></path>
  <rect class="cls-5" x="191.63" y="133.12" width="1.78" height="0.47" transform="translate(52.8 321.31) rotate(-88.08)"></rect>
  <rect class="cls-5" x="186.43" y="130.83" width="1.78" height="0.47" transform="translate(50.06 313.89) rotate(-88.08)"></rect>
  <rect class="cls-5" x="197.6" y="130.54" width="1.78" height="0.47" transform="translate(61.18 324.81) rotate(-88.09)"></rect>
  <line class="cls-6" x1="129.42" y1="74.91" x2="129.42" y2="76.41"></line>
  <line class="cls-16" x1="129.42" y1="79.37" x2="129.42" y2="196.61"></line>
  <line class="cls-6" x1="129.42" y1="198.1" x2="129.42" y2="199.6"></line>
  <path class="cls-3" d="M150,74.06l-18.71-9a4.79,4.79,0,0,0-4.32.18l-17.83,8.53c-1.28.74-.84,3.32.27,4L128,88.36a4.85,4.85,0,0,0,4.33-.18l17.24-10C150.89,77.45,151.11,74.7,150,74.06Z"></path>
  <path class="cls-3" d="M150.79,74.3a1.67,1.67,0,0,0-.58-.6h0l-18.71-9a5.18,5.18,0,0,0-4.71.2L109,73.35a2.22,2.22,0,0,0-1,2A3.11,3.11,0,0,0,109.21,78l18.62,10.68a5.16,5.16,0,0,0,4.73-.18l17.25-10a3.25,3.25,0,0,0,1.31-2.79A2.91,2.91,0,0,0,150.79,74.3Zm-1,.12a1.56,1.56,0,0,1,.49,1.33,2.45,2.45,0,0,1-.9,2.08l-17.25,10a4.44,4.44,0,0,1-3.91.18L109.62,77.32a2.38,2.38,0,0,1-.85-1.94,1.52,1.52,0,0,1,.58-1.31l17.8-8.51a4.47,4.47,0,0,1,3.94-.19Z"></path>
  <path class="cls-5" d="M149.79,73.91,131.17,63.24a4.84,4.84,0,0,0-4.33.17l-17.25,10c-1.28.74-1.42,1.86-.31,2.5L127.9,86.58a4.81,4.81,0,0,0,4.33-.18l17.25-10C150.76,75.67,150.9,74.55,149.79,73.91Z"></path>
  <path class="cls-3" d="M150.75,74.28a2,2,0,0,0-.76-.72h0L131.37,62.88a5.16,5.16,0,0,0-4.73.18l-17.25,10a2.15,2.15,0,0,0-1.27,1.76,1.67,1.67,0,0,0,1,1.44L127.7,86.93a5.16,5.16,0,0,0,4.73-.18l17.25-10A2.18,2.18,0,0,0,151,75,1.39,1.39,0,0,0,150.75,74.28Zm-1.17,0a1,1,0,0,1,.55.73c0,.35-.32.75-.86,1.06L132,86a4.4,4.4,0,0,1-3.91.18L109.49,75.54a.92.92,0,0,1-.55-.73c0-.35.32-.75.86-1l17.25-10a4.44,4.44,0,0,1,3.91-.18Z"></path>
  <rect class="cls-5" x="129.04" y="87.66" width="1.78" height="0.47" transform="translate(37.77 214.83) rotate(-88.09)"></rect>
  <rect class="cls-5" x="109.5" y="77.12" width="1.78" height="0.47" transform="translate(29.4 185.12) rotate(-88.09)"></rect>
  <rect class="cls-5" x="147.98" y="77.57" width="1.78" height="0.47" transform="translate(66.15 224) rotate(-88.09)"></rect>
  <path class="cls-4" d="M126.66,74.49l8,4.57c.6.34.52.94-.16,1.33h0a2.56,2.56,0,0,1-2.31.1l-8-4.58c-.59-.34-.52-.93.16-1.33h0A2.56,2.56,0,0,1,126.66,74.49Z"></path>
  <path class="cls-4" d="M135.25,79.21a1.12,1.12,0,0,0-.44-.42l-8-4.58a2.86,2.86,0,0,0-2.62.1,1.25,1.25,0,0,0-.73,1,1,1,0,0,0,.56.85l8,4.57a2.88,2.88,0,0,0,2.63-.09,1.25,1.25,0,0,0,.72-1A.82.82,0,0,0,135.25,79.21Zm-8.74-4.45,8,4.57c.09.06.24.17.24.31s-.16.34-.41.48a2.26,2.26,0,0,1-2,.1l-8-4.58c-.09,0-.25-.16-.25-.3s.16-.34.41-.49a2.28,2.28,0,0,1,2-.09Z"></path>
  <path class="cls-4" d="M119.73,71.82a2.8,2.8,0,0,1,2.52,0,.77.77,0,0,1,0,1.46,2.8,2.8,0,0,1-2.52,0A.77.77,0,0,1,119.73,71.82Z"></path>
  <path class="cls-4" d="M123,72.06a1.48,1.48,0,0,0-.54-.51,3.09,3.09,0,0,0-2.84,0,1.08,1.08,0,0,0,0,2,3.09,3.09,0,0,0,2.84,0,1.2,1.2,0,0,0,.68-1A1,1,0,0,0,123,72.06Zm-3.38.66a.37.37,0,0,1,0-.17c0-.16.13-.32.36-.46a2.52,2.52,0,0,1,2.21,0c.23.14.36.3.36.46a.6.6,0,0,1-.36.45,2.46,2.46,0,0,1-2.21,0A.78.78,0,0,1,119.57,72.72Z"></path>
  <path class="cls-8" d="M132.09,71.35l8,4.58c.6.34.52.93-.16,1.33h0a2.59,2.59,0,0,1-2.31.1l-8-4.58c-.59-.34-.52-.94.16-1.33h0A2.56,2.56,0,0,1,132.09,71.35Z"></path>
  <path class="cls-4" d="M140.68,76.07a1.19,1.19,0,0,0-.44-.42l-8-4.57a2.86,2.86,0,0,0-2.62.09,1.27,1.27,0,0,0-.73,1,1,1,0,0,0,.56.85l8,4.58a2.89,2.89,0,0,0,2.63-.1,1.24,1.24,0,0,0,.72-1A.85.85,0,0,0,140.68,76.07Zm-11.11-3.75a.28.28,0,0,1,0-.12c0-.15.16-.34.41-.48a2.29,2.29,0,0,1,2-.1l8,4.58c.09,0,.24.16.24.31s-.16.33-.41.48a2.26,2.26,0,0,1-2,.09l-8-4.57A.63.63,0,0,1,129.57,72.32Z"></path>
  <path class="cls-8" d="M125.16,68.69a2.74,2.74,0,0,1,2.52,0,.77.77,0,0,1,0,1.45,2.8,2.8,0,0,1-2.52,0A.76.76,0,0,1,125.16,68.69Z"></path>
  <path class="cls-4" d="M128.38,68.93a1.5,1.5,0,0,0-.54-.52,3.09,3.09,0,0,0-2.84,0,1.08,1.08,0,0,0,0,2,3.16,3.16,0,0,0,2.84,0,1.21,1.21,0,0,0,.68-1A.92.92,0,0,0,128.38,68.93Zm-3.38.65a.34.34,0,0,1,0-.17.6.6,0,0,1,.36-.45,2.46,2.46,0,0,1,2.21,0,.64.64,0,0,1,.37.45c0,.16-.14.33-.37.46a2.52,2.52,0,0,1-2.21,0A.88.88,0,0,1,125,69.58Z"></path>
</svg>
